# xmcd
#
# Track frame offsets:
#	150
#	8550
#	18693
#	27403
#	38213
#	44190
#	53728
#	63475
#	71070
#	80213
#	92065
#	102753
#	112783
#	120730
#
# Disc length: 1711 seconds
#
# Revision: 1
# Processed by: cddbd v1.4PL0 Copyright (c) Steve Scherf et al.
# Submitted via: MusicWizard 6.0.0
#
DISCID=bd06ad0e
DTITLE=Johnny Cash - Country Boy/ 14 Golden Hits
DYEAR=1990
DGENRE=Country
TTITLE0=Country Boy
TTITLE1=Straight A's In Love
TTITLE2=Two Timin' Woman
TTITLE3=Belshazar
TTITLE4=You Tell Me
TTITLE5=It's Just About Time
TTITLE6=Rock Island Line
TTITLE7=Hey Good Lookin'
TTITLE8=Blue Train
TTITLE9=Doin' My Time
TTITLE10=Cold Cold Heart
TTITLE11=I Could Never Be Ashamed Of You
TTITLE12=Sugartime
TTITLE13=If The Good Lord's Willing
EXTD=(c)1990 Disky Communications BV NL\nupc 8711539200350
EXTT0=
EXTT1=
EXTT2=
EXTT3=
EXTT4=
EXTT5=
EXTT6=
EXTT7=
EXTT8=
EXTT9=
EXTT10=
EXTT11=
EXTT12=
EXTT13=
PLAYORDER=
